<svg xmlns="http://www.w3.org/2000/svg" width="64" height="64" viewBox="0 0 64 64">
  <defs>
    <linearGradient id="b" x1="0" y1="0" x2="1" y2="0">
      <stop offset="0" stop-color="#ff9a52"/>
      <stop offset="0.45" stop-color="#ff6a1f"/>
      <stop offset="1" stop-color="#df4d0e"/>
    </linearGradient>
    <linearGradient id="f" x1="0" y1="0" x2="1" y2="0">
      <stop offset="0" stop-color="#ff8a3d"/>
      <stop offset="1" stop-color="#d8480c"/>
    </linearGradient>
  </defs>
  <rect width="64" height="64" rx="14" fill="#16161a"/>
  <g transform="translate(6 6) scale(0.8125)">
    <ellipse cx="32" cy="57" rx="22" ry="3.2" fill="#000" opacity="0.25"/>
    <path d="M15 51 Q15 49 17 49 L47 49 Q49 49 49 51 L51.5 55.5 Q52 57 50 57 L14 57 Q12 57 12.5 55.5 Z" fill="url(#f)"/>
    <path d="M32 7 L46 50 Q32 54 18 50 Z" fill="url(#b)" stroke="#c8450c" stroke-width="0.6" stroke-linejoin="round"/>
    <path d="M22.4 37 L41.6 37 L43.7 44 L20.3 44 Z" fill="#fff"/>
    <path d="M27 24 L37 24 L37.8 29 L26.2 29 Z" fill="#fff"/>
    <path d="M31 9 L24 46 L27.5 46 Z" fill="#fff" opacity="0.16"/>
  </g>
</svg>
